<?xml version="1.0" encoding="utf-8"?>
<svg width="1102.51" height="585.56" viewBox="0 0 1102.51 585.56" fill="none" xmlns="http://www.w3.org/2000/svg">
  <g>
    <path d="M538.548 363.276C537.248 363.206 536.118 362.896 536.018 362.076C562.818 354.326 576.668 331.066 574.998 303.576C573.888 285.426 565.678 272.146 547.228 268.346C495.798 257.736 431.248 276.816 382.008 292.566C362.208 298.906 351.308 306.666 344.318 327.086C344.318 327.086 124.298 370.856 124.298 370.856C120.088 373.616 117.598 376.356 117.008 381.566C116.288 387.936 116.288 403.196 117.008 409.566C118.308 421.216 127.338 422.126 136.798 424.776C145.988 427.356 155.678 429.356 164.998 431.576C206.868 441.536 249.358 448.896 291.428 457.946C291.858 468.706 291.498 477.716 302.768 482.806C358.308 485.366 414.668 484.226 470.268 482.826C481.168 480.256 485.228 472.736 483.738 461.826C482.378 451.796 476.518 450.636 467.558 450.016C428.178 447.316 384.308 454.916 345.518 451.056C343.328 450.836 338.498 450.076 337.498 448.086C336.068 445.236 336.978 439.066 340.508 439.066C340.508 439.066 379.008 439.066 379.008 439.066C379.008 439.066 379.008 424.566 379.008 424.566C379.008 418.186 361.568 404.936 359.008 398.076C362.718 398.346 366.868 397.646 370.508 398.066C378.548 398.996 392.008 412.216 392.008 420.566C392.008 420.566 392.008 436.566 392.008 436.566C392.008 436.866 390.738 437.336 391.008 438.066C391.008 438.066 454.008 438.066 454.008 438.066C454.008 438.066 454.008 418.566 454.008 418.566C454.008 415.596 441.528 404.886 440.008 401.076C450.368 398.776 466.378 406.816 467.918 417.656C468.818 423.966 467.448 431.596 467.998 438.066C496.568 434.716 505.778 466.536 489.028 485.586C489.028 485.586 479.018 492.056 479.018 492.056C479.018 492.056 586.958 488.116 586.958 488.116C588.058 489.186 588.488 512.486 588.058 515.616C587.628 518.696 585.278 520.846 584.238 523.796C578.188 540.826 584.658 567.806 605.498 570.066C645.328 574.376 648.458 502.616 608.008 505.066C608.008 505.066 608.008 486.066 608.008 486.066C630.148 483.846 652.348 484.756 674.548 484.106C699.728 483.376 725.298 482.126 750.468 481.026C777.368 479.846 804.288 479.236 831.008 476.066C831.008 476.066 831.008 516.066 831.008 516.066C801.348 514.246 799.658 564.836 828.488 566.126C835.118 566.426 837.298 562.576 840.668 562.286C843.108 562.076 847.778 566.386 853.358 565.996C876.218 564.426 879.068 523.606 857.138 517.946C857.138 517.946 857.438 513.996 857.438 513.996C874.038 511.296 892.758 516.386 907.018 504.576C920.148 493.706 919.398 478.786 918.158 463.206C938.958 456.736 969.398 449.906 983.978 432.536C1007.7 404.286 969.308 385.556 947.678 375.896C920.268 363.646 890.788 357.006 862.088 348.486C839.918 330.206 819.858 295.626 793.268 284.306C751.278 266.416 681.788 266.586 636.548 268.106C631.868 268.266 627.158 268.026 622.478 268.016C621.318 268.016 620.168 268.026 619.018 268.056C620.418 266.256 623.568 264.156 625.628 263.186C636.068 258.246 648.048 257.526 659.468 257.026C665.948 256.736 672.528 257.316 679.008 257.066C679.078 247.476 674.568 242.536 665.228 241.346C644.298 238.686 609.498 240.446 587.468 241.026C581.628 241.176 573.318 244.206 568.008 240.566C568.008 240.566 568.008 223.566 568.008 223.566C568.008 218.416 556.168 205.206 570.598 203.156C597.938 199.266 628.648 198.656 656.498 196.056C792.838 183.346 931.608 173.126 1067.39 156.946C1074.96 156.046 1077.12 155.236 1069.74 149.836C1063.19 145.056 1054.26 141.966 1046.4 140.176C962.328 145.436 878.418 155.296 794.498 163.056C717.018 170.236 639.428 176.396 562.008 184.066C562.008 184.066 562.008 153.066 562.008 153.066C572.088 153.066 582.218 155.646 579.948 141.626C579.708 140.156 577.618 136.066 576.508 136.066C576.508 136.066 560.508 136.066 560.508 136.066L559.008 134.566C559.008 134.566 559.008 98.5658 559.008 98.5658C562.108 95.7058 566.758 97.7158 571.038 96.5958C574.168 95.7858 577.358 92.2358 580.328 90.8858C586.888 87.9158 591.828 89.5958 598.498 89.0558C751.998 76.5058 910.818 57.2458 1063.38 35.9358C1070.53 34.9358 1082.23 34.0258 1088.58 32.1358C1089.85 31.7558 1091.14 32.0458 1092 30.5458C1084.34 19.4558 1069.79 13.9458 1056.52 15.0758C894.948 32.8758 733.698 53.4558 572.008 70.0658C572.008 70.0658 572.008 54.5658 572.008 54.5658C572.008 54.0958 570.488 50.0558 570.018 49.5558C568.978 48.6958 567.748 48.3358 566.438 48.1358C553.958 46.1658 536.718 49.2858 523.708 48.2658C519.028 49.6558 520.168 65.6358 520.018 70.0758C517.848 69.9658 515.628 70.2458 513.468 70.1058C471.358 67.4058 424.048 59.3058 381.638 53.9358C271.888 40.0459 162.308 24.6059 52.4984 11.0759C44.7884 11.3659 37.5484 9.30594 29.9784 11.5359C26.7984 12.4759 10.6084 21.8859 10.0084 24.5759C10.0284 27.1359 13.7584 27.4659 15.7784 27.7959C28.2284 29.8559 41.1084 31.2959 53.6384 32.9359C186.468 50.3459 319.548 66.7559 452.518 83.0559C469.268 85.1159 495.168 85.1959 510.418 89.1559C514.918 90.3159 516.768 93.3159 520.318 95.2559C524.328 97.4459 528.518 97.8559 532.008 100.566C532.008 100.566 532.008 136.066 532.008 136.066C532.008 136.066 515.508 136.066 515.508 136.066C512.028 136.066 509.098 151.616 516.528 153.046C520.228 153.756 525.988 152.176 529.358 153.216C532.078 154.066 530.008 157.146 529.958 159.526C529.778 168.026 530.188 176.576 530.018 185.076C512.498 184.856 494.988 184.686 477.468 184.106C348.698 179.866 220.308 173.196 91.4684 170.106C67.1084 169.526 41.2884 162.866 21.9884 181.546C19.1684 184.286 15.7584 187.496 21.4584 188.116C27.8784 188.816 35.8484 187.786 42.5484 188.026C182.008 192.976 321.878 197.926 461.468 203.106C478.208 203.726 495.818 203.106 512.498 204.076C515.168 204.226 523.498 204.766 525.298 205.276C534.418 207.856 524.008 220.926 524.008 225.566C524.008 225.566 524.008 240.566 524.008 240.566C515.998 245.406 497.058 237.626 491.158 245.716C490.118 247.146 486.918 253.956 488.008 255.066C488.008 255.066 534.498 256.076 534.498 256.076C565.238 256.626 585.458 265.246 587.998 298.576C590.518 331.766 578.108 358.886 542.498 363.056C541.838 363.136 540.078 363.366 538.548 363.276C538.548 363.276 538.548 363.276 538.548 363.276C538.548 363.276 538.548 363.276 538.548 363.276ZM420.068 513.926C420.068 513.926 419.518 515.036 419.518 515.036C368.448 483.466 359.568 583.226 409.068 574.616C429.298 571.096 431.198 548.626 430.458 532.016C430.458 532.016 452.008 494.066 452.008 494.066L430.008 494.066L420.068 513.926L420.068 513.926ZM1102.01 29.5559C1102.07 39.3359 1094.8 41.1059 1087.05 42.6059C1042.17 51.2659 990.318 55.2359 944.388 60.9459C830.158 75.126 714.208 90.0059 599.498 99.0559C595.638 99.3559 591.278 98.5559 587.568 99.1259C582.128 99.9759 575.998 107.816 569.008 107.066C569.008 107.066 569.008 126.066 569.008 126.066C595.508 121.186 598.348 163.946 572.018 163.076C572.018 163.076 572.018 173.066 572.018 173.066C645.768 165.806 719.688 159.896 793.508 153.066C843.178 148.466 892.788 143.536 942.498 139.056C972.238 136.386 1003.9 131.396 1033.47 130.026C1047.47 129.376 1073.35 134.386 1081.46 147.116C1089.34 159.476 1079.48 165.216 1068.39 166.946C991.288 178.976 909.058 178.636 831.498 190.056C831.498 190.056 575.008 213.076 575.008 213.076C576.978 219.376 578.758 225.306 578.008 232.066C580.578 232.246 582.928 231.116 585.468 231.026C608.468 230.216 645.208 228.706 667.228 231.346C680.978 232.996 689.279 243.246 689.068 257.016C719.319 259.086 749.798 261.736 779.219 269.356C821.458 280.296 837.239 311.206 867.079 339.496C904.559 351.346 950.898 359.836 982.928 383.646C987.528 387.066 1000.13 399.296 1000.94 404.626C1007.34 446.266 960.959 461.776 929.108 470.166C931.789 502.056 910.778 523.756 879.008 523.066C887.249 544.546 879.308 575.306 852.459 576.096C847.849 576.226 844.518 573.506 841.508 573.506C839.268 573.506 836.099 575.626 833.428 575.976C792.879 581.346 784.469 517.646 821.008 507.066C821.008 507.066 821.008 487.066 821.008 487.066L745.549 492.106L619.018 495.076C619.018 495.076 628.958 499.616 628.958 499.616C658.498 519.016 650.228 577.226 612.548 580.096C580.598 582.536 566.229 550.026 574.068 522.626C574.938 519.586 577.538 515.836 577.948 513.506C578.448 510.706 578.779 499.756 576.058 498.586C576.058 498.586 552.548 500.106 552.548 500.106C536.848 500.096 521.148 500.546 505.468 501.026C497.878 501.256 477.598 504.686 472.068 499.506C468.148 495.846 471.328 491.106 462.048 493.116C462.118 496.426 460.898 499.196 459.548 502.106C455.528 510.796 442.398 527.766 440.408 535.056C439.818 537.226 440.588 547.036 439.888 551.446C432.288 599.636 369.798 594.246 366.018 546.546C363.648 516.496 384.098 491.606 415.368 501.146C415.368 501.146 419.008 494.066 419.008 494.066C419.008 494.066 306.508 494.066 306.508 494.066C292.328 492.386 281.798 480.046 281.438 465.946C233.428 455.686 183.958 447.816 136.588 434.986C126.538 432.266 117.108 431.006 110.468 422.096C110.468 422.096 109.068 422.126 109.068 422.126C108.238 425.886 102.738 426.896 99.2185 426.446C91.8085 425.496 55.6385 414.406 50.0685 410.506C41.5285 404.516 38.7885 395.566 38.0185 385.556C36.2885 362.886 39.8885 334.546 37.0585 312.516C36.6885 309.656 34.9285 308.656 34.2685 306.306C31.0184 294.906 31.7585 235.796 32.9685 221.526C34.4085 204.616 47.0785 200.556 60.9985 200.556C64.1385 200.556 67.3385 200.766 70.4985 201.076C88.5484 202.866 93.7785 217.926 99.0484 232.526C113.868 273.576 124.338 316.456 142.588 356.136C142.588 356.136 336.288 317.846 336.288 317.846C342.598 307.556 348.168 297.906 358.688 291.246C374.588 281.166 425.208 269.616 445.788 264.346C456.108 261.716 466.568 259.466 477.068 257.626C478.578 251.006 478.758 245.276 483.008 239.566C490.898 228.976 502.508 231.796 514.018 232.076C514.018 232.076 517.008 215.076 517.008 215.076C507.688 213.176 498.018 214.376 488.518 214.056C362.258 209.776 235.588 204.526 109.548 200.026C93.8884 199.026 77.3784 199.376 60.9984 199.446C47.2184 199.506 33.5384 199.376 20.5184 198.056C14.2584 197.416 7.97842 193.526 7.98842 186.566C8.01842 176.106 28.7684 162.926 38.0184 160.576C53.7184 156.596 77.0484 159.686 93.4684 160.106C222.308 163.386 350.948 169.546 479.468 174.106C492.958 174.586 506.538 174.106 520.018 175.076C520.018 175.076 520.018 163.066 520.018 163.066C494.608 164.696 495.968 122.116 522.018 126.066C522.018 126.066 521.548 107.026 521.548 107.026C521.548 107.026 505.838 98.7659 505.838 98.7659C339.838 79.5959 173.878 58.2459 8.19841 36.3759C3.74841 35.1759 0.518406 31.0459 0.0484062 26.4459C-1.15159 14.5759 20.2684 3.89594 29.9784 1.53594C45.6084 -2.28406 57.0184 1.98594 72.6284 3.94594C218.428 22.1859 364.078 41.9659 509.968 59.0159C511.108 47.7059 512.468 39.1359 525.478 38.0359C535.768 37.1559 557.328 36.9859 567.398 38.1759C579.338 39.5959 581.808 48.3759 582.008 59.0759C582.008 59.0759 970.498 15.0559 970.498 15.0559C981.388 13.8259 991.708 12.1859 1002.46 11.0159C1022.02 8.88594 1056.93 2.09594 1074.81 6.76594C1083.02 8.91594 1101.95 20.2959 1102.01 29.5559C1102.01 29.5559 1102.01 29.5559 1102.01 29.5559ZM132.008 357.066C129.688 350.146 125.748 343.626 122.988 336.586C109.428 301.926 101.128 262.686 87.0284 228.546C84.0784 221.396 79.7484 212.736 71.2684 211.306C67.2884 210.636 57.5284 210.556 53.4884 211.046C47.3384 211.786 43.6984 215.496 43.0084 221.566C40.2984 245.466 45.0684 274.186 42.9584 298.616C42.4284 302.936 46.4984 305.516 47.0584 309.516C50.1184 331.746 46.2284 361.566 47.9684 384.606C48.4384 390.786 49.2584 396.276 53.9884 400.586C59.2984 405.406 88.6184 413.716 96.9784 415.616C98.3084 415.916 99.5984 416.316 100.988 416.046C102.158 401.106 99.5984 384.306 100.958 369.516C102.208 355.916 121.848 358.526 132.008 357.066C132.008 357.066 132.008 357.066 132.008 357.066C132.008 357.066 132.008 357.066 132.008 357.066Z" fill="#000000" transform="translate(0.242 0.254)" />
    <path d="M528.54 352.79C530.07 352.88 531.83 352.65 532.49 352.57C568.1 348.4 580.51 321.28 577.99 288.09C575.45 254.76 555.23 246.14 524.49 245.59C524.49 245.59 478 244.58 478 244.58C476.91 243.47 480.11 236.66 481.15 235.23C487.05 227.14 505.99 234.92 514 230.08C514 230.08 514 215.08 514 215.08C514 210.44 524.41 197.37 515.29 194.79C513.49 194.28 505.16 193.74 502.49 193.59C485.81 192.63 468.2 193.24 451.46 192.62C311.87 187.44 172 182.49 32.54 177.54C25.84 177.3 17.87 178.33 11.45 177.63C5.74998 177.01 9.15998 173.8 11.98 171.06C31.28 152.38 57.1 159.04 81.46 159.62C210.3 162.71 338.69 169.38 467.46 173.62C484.98 174.2 502.49 174.37 520.01 174.59C520.18 166.09 519.77 157.54 519.95 149.04C520 146.66 522.07 143.58 519.35 142.73C515.98 141.69 510.22 143.27 506.52 142.56C499.09 141.13 502.02 125.58 505.5 125.58C505.5 125.58 522 125.58 522 125.58C522 125.58 522 90.0802 522 90.0802C518.51 87.3702 514.32 86.9602 510.31 84.7702C506.76 82.8302 504.91 79.8302 500.41 78.6702C485.16 74.7102 459.26 74.6302 442.51 72.5702C309.54 56.2702 176.46 39.8602 43.63 22.4502C31.1 20.8102 18.22 19.3702 5.77 17.3102C3.75 16.9802 0.0200005 16.6502 0 14.0902C0.6 11.4002 16.79 1.99024 19.97 1.05025C27.54 -1.17976 34.78 0.880245 42.49 0.590245C152.3 14.1202 261.88 29.5602 371.63 43.4502C414.04 48.8202 461.35 56.9202 503.46 59.6202C505.62 59.7602 507.84 59.4802 510.01 59.5902C510.16 55.1502 509.02 39.1702 513.7 37.7803C526.71 38.8003 543.95 35.6803 556.43 37.6502C557.74 37.8503 558.97 38.2103 560.01 39.0702C560.48 39.5702 562 43.6102 562 44.0802C562 44.0802 562 59.5802 562 59.5802C723.69 42.9702 884.94 22.3902 1046.51 4.59024C1059.78 3.46024 1074.33 8.97024 1081.99 20.0602C1081.13 21.5602 1079.84 21.2702 1078.57 21.6502C1072.22 23.5402 1060.52 24.4502 1053.37 25.4502C900.81 46.7602 741.99 66.0202 588.49 78.5702C581.82 79.1102 576.88 77.4302 570.32 80.4002C567.35 81.7502 564.16 85.3002 561.03 86.1102C556.75 87.2302 552.1 85.2202 549 88.0802C549 88.0802 549 124.08 549 124.08L550.5 125.58C550.5 125.58 566.5 125.58 566.5 125.58C567.61 125.58 569.7 129.67 569.94 131.14C572.21 145.16 562.08 142.57 552 142.58C552 142.58 552 173.58 552 173.58C629.42 165.91 707.01 159.75 784.49 152.57C868.41 144.81 952.32 134.95 1036.39 129.69C1044.25 131.48 1053.18 134.57 1059.73 139.35C1067.11 144.75 1064.95 145.56 1057.38 146.46C921.6 162.64 782.83 172.86 646.49 185.57C618.64 188.17 587.93 188.78 560.59 192.67C546.16 194.72 558 207.93 558 213.08C558 213.08 558 230.08 558 230.08C563.31 233.72 571.62 230.69 577.46 230.54C599.49 229.96 634.29 228.2 655.22 230.86C664.56 232.05 669.07 236.99 669 246.58C662.52 246.83 655.94 246.25 649.46 246.54C638.04 247.04 626.06 247.76 615.62 252.7C613.56 253.67 610.41 255.77 609.01 257.57C610.16 257.54 611.31 257.53 612.47 257.53C617.15 257.54 621.86 257.78 626.54 257.62C671.78 256.1 741.27 255.93 783.26 273.82C809.85 285.14 829.91 319.72 852.08 338C880.78 346.52 910.26 353.16 937.67 365.41C959.3 375.07 997.69 393.8 973.97 422.05C959.39 439.42 928.95 446.25 908.15 452.72C909.39 468.3 910.14 483.22 897.01 494.09C882.75 505.9 864.03 500.81 847.43 503.51C847.43 503.51 847.13 507.46 847.13 507.46C869.06 513.12 866.21 553.94 843.35 555.51C837.77 555.9 833.1 551.59 830.66 551.8C827.29 552.09 825.11 555.94 818.48 555.64C789.65 554.35 791.34 503.76 821 505.58C821 505.58 821 465.58 821 465.58C794.28 468.75 767.36 469.36 740.46 470.54C715.29 471.64 689.72 472.89 664.54 473.62C642.34 474.27 620.14 473.36 598 475.58C598 475.58 598 494.58 598 494.58C638.45 492.13 635.32 563.89 595.49 559.58C574.65 557.32 568.18 530.34 574.23 513.31C575.27 510.36 577.62 508.21 578.05 505.13C578.48 502 578.05 478.7 576.95 477.63C576.95 477.63 469.01 481.57 469.01 481.57C469.01 481.57 479.02 475.1 479.02 475.1C495.77 456.05 486.56 424.23 457.99 427.58C457.44 421.11 458.81 413.48 457.91 407.17C456.37 396.33 440.36 388.29 430 390.59C431.52 394.4 444 405.11 444 408.08C444 408.08 444 427.58 444 427.58C444 427.58 381 427.58 381 427.58C380.73 426.85 382 426.38 382 426.08C382 426.08 382 410.08 382 410.08C382 401.73 368.54 388.51 360.5 387.58C356.86 387.16 352.71 387.86 349 387.59C351.56 394.45 369 407.7 369 414.08C369 414.08 369 428.58 369 428.58C369 428.58 330.5 428.58 330.5 428.58C326.97 428.58 326.06 434.75 327.49 437.6C328.49 439.59 333.32 440.35 335.51 440.57C374.3 444.43 418.17 436.83 457.55 439.53C466.51 440.15 472.37 441.31 473.73 451.34C475.22 462.25 471.16 469.77 460.26 472.34C404.66 473.74 348.3 474.88 292.76 472.32C281.49 467.23 281.85 458.22 281.42 447.46C239.35 438.41 196.86 431.05 154.99 421.09C145.67 418.87 135.98 416.87 126.79 414.29C117.33 411.64 108.3 410.73 107 399.08C106.28 392.71 106.28 377.45 107 371.08C107.59 365.87 110.08 363.13 114.29 360.37C114.29 360.37 334.31 316.6 334.31 316.6C341.3 296.18 352.2 288.42 372 282.08C421.24 266.33 485.79 247.25 537.22 257.86C555.67 261.66 563.88 274.94 564.99 293.09C566.66 320.58 552.81 343.84 526.01 351.59C526.11 352.41 527.24 352.72 528.54 352.79C528.54 352.79 528.54 352.79 528.54 352.79C528.54 352.79 528.54 352.79 528.54 352.79ZM829.99 334.57C830.45 332.84 829.28 332.58 828.51 331.57C820.41 321.02 800.83 300.17 790.9 291.18C785.56 286.36 782.51 285.56 775.37 284.71C765.09 283.49 749.71 282.59 739.5 282.58C736.68 282.58 733.23 284.39 730 283.59C730 283.59 775.02 337.05 775.02 337.05C778.8 338.67 797.63 334.86 803.46 334.54C812.24 334.06 821.2 334.98 829.99 334.57C829.99 334.57 829.99 334.57 829.99 334.57C829.99 334.57 829.99 334.57 829.99 334.57ZM759.44 348C761.14 346.16 763.22 346.48 761.48 342.61C761.48 342.61 715.01 288.58 715.01 288.58C715.01 288.58 692.41 347.63 692.41 347.63C693.99 349.64 737.12 357.49 742.46 357.64C750.78 357.86 754.1 353.79 759.44 348C759.44 348 759.44 348 759.44 348C759.44 348 759.44 348 759.44 348ZM676.36 342.5C676.36 342.5 700.29 283.87 700.29 283.87C699.1 281.21 690.9 280.81 687.49 280.59C677.74 279.97 657.49 278.25 648.74 279.82C647.37 280.06 645.54 280.67 644.47 281.55C641.03 284.37 637.96 305.74 637.17 311.25C636.44 316.31 633.45 326.68 637.05 330.03C639.42 332.23 674.13 343.22 676.36 342.5C676.36 342.5 676.36 342.5 676.36 342.5L676.36 342.5ZM687.5 414.58C699.47 413.08 697.2 401.76 685.49 400.59C663.42 398.4 631.59 400.19 608.79 400.87C599.97 401.14 590.19 400.73 581.51 401.59C568.2 402.91 567.2 414.99 577.6 416.48C577.6 416.48 687.5 414.58 687.5 414.58L687.5 414.58C687.5 414.58 687.5 414.58 687.5 414.58ZM464.41 361.53C467.52 359.82 463.98 358.09 462.05 357.03C446.83 348.69 398.43 350.35 379.79 350.87C356.69 351.53 332.57 352.86 309.51 354.59C292.62 355.86 268.17 357 252.15 360.23C238.99 362.88 234.86 375.49 237.44 387.64C238.6 393.08 243.71 400.12 250 397.08C255.72 394.32 249.8 379.31 258.49 373.57C263.95 369.97 283.99 371.08 291.49 370.57C332.8 367.74 374.13 364.53 415.46 362.54C431.73 361.75 448.15 361.41 464.41 361.53C464.41 361.53 464.41 361.53 464.41 361.53C464.41 361.53 464.41 361.53 464.41 361.53Z" fill="#FFFFFF" transform="translate(10.25 10.74)" />
    <path d="M98.5101 48.99C99.2801 50 100.45 50.26 99.9901 51.99C91.2001 52.4 82.2401 51.48 73.46 51.96C67.63 52.28 48.8 56.09 45.02 54.47C45.02 54.47 0 1.01001 0 1.01001C3.22998 1.81 6.67999 0 9.5 0C19.71 0.0100098 35.09 0.910004 45.37 2.13C52.51 2.98001 55.56 3.78 60.9 8.60001C70.83 17.59 90.41 38.44 98.51 48.99C98.51 48.99 98.51 48.99 98.51 48.99C98.51 48.99 98.5101 48.99 98.5101 48.99ZM78.0001 41.99L50.9501 13.55L22.0001 11.01L49.9501 44.45L78.0001 41.99L78.0001 41.99Z" fill="#000000" transform="translate(740.25 293.32)" />
    <path d="M28.95 2.54001L56 30.98L27.95 33.44L0 0L28.95 2.54001L28.95 2.54001Z" fill="#FFFFFF" fill-rule="evenodd" transform="translate(762.25 304.33)" />
    <path d="M69.0699 54.03C70.8099 57.9 68.7299 57.58 67.03 59.42C61.6899 65.21 58.37 69.28 50.05 69.06C44.71 68.91 1.57996 61.06 0 59.05C0 59.05 22.6 0 22.6 0L69.0699 54.03L69.0699 54.03C69.0699 54.03 69.0699 54.03 69.0699 54.03ZM56.5099 55.36C56.6699 54.4099 46.34 42.45 44.64 40.45C43.3599 38.9399 41.2999 38.2599 40.16 36.93C36.47 32.65 32.45 24.7899 28.12 20.97C27.25 20.21 27 19.68 25.6 20C25.6 20 12.61 51.51 12.61 51.51C13.28 52.64 14.1 52.62 15.14 52.96C21.56 55.01 34.26 56.92 41.26 57.83C46.78 58.55 53.31 61.16 56.51 55.36C56.51 55.36 56.51 55.36 56.51 55.36C56.51 55.36 56.5099 55.36 56.5099 55.36Z" fill="#000000" transform="translate(702.66 299.32)" />
    <path d="M32.03 20.545C33.73 22.545 44.0601 34.505 43.9 35.455C40.7 41.255 34.17 38.645 28.65 37.925C21.65 37.015 8.95001 35.105 2.53003 33.055C1.49005 32.715 0.670044 32.735 0 31.605C0 31.605 12.99 0.0950012 12.99 0.0950012C14.39 -0.225006 14.64 0.304993 15.51 1.065C19.84 4.88501 23.86 12.745 27.55 17.025C28.69 18.355 30.75 19.035 32.03 20.545C32.03 20.545 32.03 20.545 32.03 20.545C32.03 20.545 32.03 20.545 32.03 20.545Z" fill="#FFFFFF" transform="translate(715.27 319.225)" />
    <path d="M64.9787 4.69327C64.9787 4.69327 41.0487 63.3233 41.0487 63.3233C38.8187 64.0433 4.1087 53.0533 1.73871 50.8533C-1.86127 47.5033 1.12872 37.1333 1.8587 32.0733C2.64868 26.5633 5.71869 5.19327 9.15869 2.37326C10.2287 1.49326 12.0587 0.88327 13.4287 0.64325C22.1787 -0.926758 42.4287 0.793243 52.1787 1.41324C55.5887 1.63324 63.7887 2.03323 64.9787 4.69324C64.9787 4.69324 64.9787 4.69324 64.9787 4.69324L64.9787 4.69327ZM35.5787 51.3233L51.6887 11.4133L15.7387 10.4533L10.7887 44.3133L35.5787 51.3233L35.5787 51.3233L35.5787 51.3233Z" fill="#000000" transform="translate(645.561 289.917)" />
    <path d="M114.922 1.05536C126.632 2.22537 128.902 13.5453 116.932 15.0453C116.932 15.0453 7.03174 16.9453 7.03174 16.9453C-3.36829 15.4554 -2.36829 3.37534 10.9417 2.05533C19.6217 1.19534 29.4017 1.60532 38.2217 1.33533C61.0217 0.655334 92.8517 -1.13467 114.922 1.05533C114.922 1.05533 114.922 1.05533 114.922 1.05533C114.922 1.05533 114.922 1.05536 114.922 1.05536Z" fill="#000000" transform="translate(580.818 410.275)" />
    <path d="M40.9 0.959991L24.79 40.87L0 33.86L4.95001 0L40.9 0.959991L40.9 0.959991Z" fill="#FFFFFF" fill-rule="evenodd" transform="translate(656.35 300.37)" />
    <path d="M225.338 6.64792C227.268 7.70792 230.808 9.43793 227.698 11.1479C211.438 11.0279 195.018 11.3679 178.748 12.1579C137.418 14.1479 96.0883 17.3579 54.7783 20.1879C47.2783 20.6979 27.2383 19.5879 21.7783 23.1879C13.0883 28.9279 19.0083 43.9379 13.2883 46.6979C6.99831 49.7379 1.88831 42.6979 0.728302 37.2579C-1.8517 25.1079 2.27831 12.4979 15.4383 9.84793C31.4583 6.61792 55.9083 5.47794 72.7983 4.20792C95.8583 2.47791 119.978 1.14792 143.078 0.487915C161.718 -0.032074 210.118 -1.69208 225.338 6.64792C225.338 6.64792 225.338 6.64792 225.338 6.64792C225.338 6.64792 225.338 6.64792 225.338 6.64792Z" fill="#000000" transform="translate(246.962 361.122)" />
    <path d="M43.8353 19.86L53.7753 0L75.7753 0C75.7753 0 54.2253 37.95 54.2253 37.95C54.9653 54.56 53.0653 77.03 32.8353 80.55C-16.6647 89.16 -7.7847 -10.6 43.2853 20.97C43.2853 20.97 43.8353 19.86 43.8353 19.86L43.8353 19.86Z" fill="#FFFFFF" transform="translate(376.475 494.32)" />
    <path d="M80.8377 125.854C83.5977 132.894 87.5377 139.414 89.8577 146.334C79.6977 147.794 60.0577 145.184 58.8077 158.784C57.4477 173.574 60.0077 190.374 58.8377 205.314C57.4477 205.584 56.1577 205.184 54.8277 204.884C46.4677 202.984 17.1477 194.674 11.8377 189.854C7.10769 185.544 6.28769 180.054 5.81769 173.874C4.07769 150.834 7.96769 121.014 4.90769 98.7844C4.34769 94.7844 0.277691 92.2044 0.807693 87.8844C2.91769 63.4544 -1.85231 34.7344 0.857693 10.8344C1.54769 4.76436 5.18769 1.05437 11.3377 0.314362C15.3777 -0.175644 25.1377 -0.0956421 29.1177 0.574356C37.5977 2.00435 41.9277 10.6644 44.8777 17.8144C58.9777 51.9543 67.2777 91.1944 80.8377 125.854C80.8377 125.854 80.8377 125.854 80.8377 125.854C80.8377 125.854 80.8377 125.854 80.8377 125.854Z" fill="#FFFFFF" transform="translate(42.392 210.986)" />
  </g>
</svg>