<?xml version="1.0" encoding="UTF-8"?><svg id="ka52" xmlns="http://www.w3.org/2000/svg" viewBox="0 0 1102.51 585.56"><defs><style>.cls-1{fill:#f7ffcc;}.cls-2{fill:#005532;}</style></defs><path id="stroke" class="cls-2" d="M538.79,363.53c-1.3-.07-2.43-.38-2.53-1.2,26.8-7.75,40.65-31.01,38.98-58.5-1.11-18.15-9.32-31.43-27.77-35.23-51.43-10.61-115.98,8.47-165.22,24.22-19.8,6.34-30.7,14.1-37.69,34.52l-220.02,43.77c-4.21,2.76-6.7,5.5-7.29,10.71-.72,6.37-.72,21.63,0,28,1.3,11.65,10.33,12.56,19.79,15.21,9.19,2.58,18.88,4.58,28.2,6.8,41.87,9.96,84.36,17.32,126.43,26.37.43,10.76.07,19.77,11.34,24.86,55.54,2.56,111.9,1.42,167.5.02,10.9-2.57,14.96-10.09,13.47-21-1.36-10.03-7.22-11.19-16.18-11.81-39.38-2.7-83.25,4.9-122.04,1.04-2.19-.22-7.02-.98-8.02-2.97-1.43-2.85-.52-9.02,3.01-9.02h38.5v-14.5c0-6.38-17.44-19.63-20-26.49,3.71.27,7.86-.43,11.5-.01,8.04.93,21.5,14.15,21.5,22.5v16c0,.3-1.27.77-1,1.5h63v-19.5c0-2.97-12.48-13.68-14-17.49,10.36-2.3,26.37,5.74,27.91,16.58.9,6.31-.47,13.94.08,20.41,28.57-3.35,37.78,28.47,21.03,47.52l-10.01,6.47,107.94-3.94c1.1,1.07,1.53,24.37,1.1,27.5-.43,3.08-2.78,5.23-3.82,8.18-6.05,17.03.42,44.01,21.26,46.27,39.83,4.31,42.96-67.45,2.51-65v-19c22.14-2.22,44.34-1.31,66.54-1.96,25.18-.73,50.75-1.98,75.92-3.08,26.9-1.18,53.82-1.79,80.54-4.96v40c-29.66-1.82-31.35,48.77-2.52,50.06,6.63.3,8.81-3.55,12.18-3.84,2.44-.21,7.11,4.1,12.69,3.71,22.86-1.57,25.71-42.39,3.78-48.05l.3-3.95c16.6-2.7,35.32,2.39,49.58-9.42,13.13-10.87,12.38-25.79,11.14-41.37,20.8-6.47,51.24-13.3,65.82-30.67,23.72-28.25-14.67-46.98-36.3-56.64-27.41-12.25-56.89-18.89-85.59-27.41-22.17-18.28-42.23-52.86-68.82-64.18-41.99-17.89-111.48-17.72-156.72-16.2-4.68.16-9.39-.08-14.07-.09-1.16,0-2.31.01-3.46.04,1.4-1.8,4.55-3.9,6.61-4.87,10.44-4.94,22.42-5.66,33.84-6.16,6.48-.29,13.06.29,19.54.04.07-9.59-4.44-14.53-13.78-15.72-20.93-2.66-55.73-.9-77.76-.32-5.84.15-14.15,3.18-19.46-.46v-17c0-5.15-11.84-18.36,2.59-20.41,27.34-3.89,58.05-4.5,85.9-7.1,136.34-12.71,275.11-22.93,410.89-39.11,7.57-.9,9.73-1.71,2.35-7.11-6.55-4.78-15.48-7.87-23.34-9.66-84.07,5.26-167.98,15.12-251.9,22.88-77.48,7.18-155.07,13.34-232.49,21.01v-31c10.08,0,20.21,2.58,17.94-11.44-.24-1.47-2.33-5.56-3.44-5.56h-16l-1.5-1.5v-36c3.1-2.86,7.75-.85,12.03-1.97,3.13-.81,6.32-4.36,9.29-5.71,6.56-2.97,11.5-1.29,18.17-1.83,153.5-12.55,312.32-31.81,464.88-53.12,7.15-1,18.85-1.91,25.2-3.8,1.27-.38,2.56-.09,3.42-1.59-7.66-11.09-22.21-16.6-35.48-15.47-161.57,17.8-322.82,38.38-484.51,54.99v-15.5c0-.47-1.52-4.51-1.99-5.01-1.04-.86-2.27-1.22-3.58-1.42-12.48-1.97-29.72,1.15-42.73.13-4.68,1.39-3.54,17.37-3.69,21.81-2.17-.11-4.39.17-6.55.03-42.11-2.7-89.42-10.8-131.83-16.17C272.13,40.3,162.55,24.86,52.74,11.33c-7.71.29-14.95-1.77-22.52.46-3.18.94-19.37,10.35-19.97,13.04.02,2.56,3.75,2.89,5.77,3.22,12.45,2.06,25.33,3.5,37.86,5.14,132.83,17.41,265.91,33.82,398.88,50.12,16.75,2.06,42.65,2.14,57.9,6.1,4.5,1.16,6.35,4.16,9.9,6.1,4.01,2.19,8.2,2.6,11.69,5.31v35.5h-16.5c-3.48,0-6.41,15.55,1.02,16.98,3.7.71,9.46-.87,12.83.17,2.72.85.65,3.93.6,6.31-.18,8.5.23,17.05.06,25.55-17.52-.22-35.03-.39-52.55-.97-128.77-4.24-257.16-10.91-386-14-24.36-.58-50.18-7.24-69.48,11.44-2.82,2.74-6.23,5.95-.53,6.57,6.42.7,14.39-.33,21.09-.09,139.46,4.95,279.33,9.9,418.92,15.08,16.74.62,34.35,0,51.03.97,2.67.15,11,.69,12.8,1.2,9.12,2.58-1.29,15.65-1.29,20.29v15c-8.01,4.84-26.95-2.94-32.85,5.15-1.04,1.43-4.24,8.24-3.15,9.35l46.49,1.01c30.74.55,50.96,9.17,53.5,42.5,2.52,33.19-9.89,60.31-45.5,64.48-.66.08-2.42.31-3.95.22h0ZM420.31,514.18l-.55,1.11c-51.07-31.57-59.95,68.19-10.45,59.58,20.23-3.52,22.13-25.99,21.39-42.6l21.55-37.95h-22l-9.94,19.86ZM1102.25,29.81c.06,9.78-7.21,11.55-14.96,13.05-44.88,8.66-96.73,12.63-142.66,18.34-114.23,14.18-230.18,29.06-344.89,38.11-3.86.3-8.22-.5-11.93.07-5.44.85-11.57,8.69-18.56,7.94v19c26.5-4.88,29.34,37.88,3.01,37.01v9.99c73.75-7.26,147.67-13.17,221.49-20,49.67-4.6,99.28-9.53,148.99-14.01,29.74-2.67,61.4-7.66,90.97-9.03,14-.65,39.88,4.36,47.99,17.09,7.88,12.36-1.98,18.1-13.07,19.83-77.1,12.03-159.33,11.69-236.89,23.11l-256.49,23.02c1.97,6.3,3.75,12.23,3,18.99,2.57.18,4.92-.95,7.46-1.04,23-.81,59.74-2.32,81.76.32,13.75,1.65,22.05,11.9,21.84,25.67,30.25,2.07,60.73,4.72,90.15,12.34,42.24,10.94,58.02,41.85,87.86,70.14,37.48,11.85,83.82,20.34,115.85,44.15,4.6,3.42,17.2,15.65,18.01,20.98,6.4,41.64-39.98,57.15-71.83,65.54,2.68,31.89-18.33,53.59-50.1,52.9,8.24,21.48.3,52.24-26.55,53.03-4.61.13-7.94-2.59-10.95-2.59-2.24,0-5.41,2.12-8.08,2.47-40.55,5.37-48.96-58.33-12.42-68.91v-20l-75.46,5.04-126.53,2.97,9.94,4.54c29.54,19.4,21.27,77.61-16.41,80.48-31.95,2.44-46.32-30.07-38.48-57.47.87-3.04,3.47-6.79,3.88-9.12.5-2.8.83-13.75-1.89-14.92l-23.51,1.52c-15.7-.01-31.4.44-47.08.92-7.59.23-27.87,3.66-33.4-1.52-3.92-3.66-.74-8.4-10.02-6.39.07,3.31-1.15,6.08-2.5,8.99-4.02,8.69-17.15,25.66-19.14,32.95-.59,2.17.18,11.98-.52,16.39-7.6,48.19-70.09,42.8-73.87-4.9-2.37-30.05,18.08-54.94,49.35-45.4l3.64-7.08h-112.5c-14.18-1.68-24.71-14.02-25.07-28.12-48.01-10.26-97.48-18.13-144.85-30.96-10.05-2.72-19.48-3.98-26.12-12.89l-1.4.03c-.83,3.76-6.33,4.77-9.85,4.32-7.41-.95-43.58-12.04-49.15-15.94-8.54-5.99-11.28-14.94-12.05-24.95-1.73-22.67,1.87-51.01-.96-73.04-.37-2.86-2.13-3.86-2.79-6.21-3.25-11.4-2.51-70.51-1.3-84.78,1.44-16.91,14.11-20.97,28.03-20.97,3.14,0,6.34.21,9.5.52,18.05,1.79,23.28,16.85,28.55,31.45,14.82,41.05,25.29,83.93,43.54,123.61l193.7-38.29c6.31-10.29,11.88-19.94,22.4-26.6,15.9-10.08,66.52-21.63,87.1-26.9,10.32-2.63,20.78-4.88,31.28-6.72,1.51-6.62,1.69-12.35,5.94-18.06,7.89-10.59,19.5-7.77,31.01-7.49l2.99-17c-9.32-1.9-18.99-.7-28.49-1.02-126.26-4.28-252.93-9.53-378.97-14.03-15.66-1-32.17-.65-48.55-.58-13.78.06-27.46-.07-40.48-1.39-6.26-.64-12.54-4.53-12.53-11.49.03-10.46,20.78-23.64,30.03-25.99,15.7-3.98,39.03-.89,55.45-.47,128.84,3.28,257.48,9.44,386,14,13.49.48,27.07,0,40.55.97v-12.01c-25.41,1.63-24.05-40.95,2-37l-.47-19.04-15.71-8.26C340.08,79.85,174.12,58.5,8.44,36.63,3.99,35.43.76,31.3.29,26.7-.91,14.83,20.51,4.15,30.22,1.79c15.63-3.82,27.04.45,42.65,2.41,145.8,18.24,291.45,38.02,437.34,55.07,1.14-11.31,2.5-19.88,15.51-20.98,10.29-.88,31.85-1.05,41.92.14,11.94,1.42,14.41,10.2,14.61,20.9L970.74,15.31c10.89-1.23,21.21-2.87,31.96-4.04,19.56-2.13,54.47-8.92,72.35-4.25,8.21,2.15,27.14,13.53,27.2,22.79ZM132.25,357.32c-2.32-6.92-6.26-13.44-9.02-20.48-13.56-34.66-21.86-73.9-35.96-108.04-2.95-7.15-7.28-15.81-15.76-17.24-3.98-.67-13.74-.75-17.78-.26-6.15.74-9.79,4.45-10.48,10.52-2.71,23.9,2.06,52.62-.05,77.05-.53,4.32,3.54,6.9,4.1,10.9,3.06,22.23-.83,52.05.91,75.09.47,6.18,1.29,11.67,6.02,15.98,5.31,4.82,34.63,13.13,42.99,15.03,1.33.3,2.62.7,4.01.43,1.17-14.94-1.39-31.74-.03-46.53,1.25-13.6,20.89-10.99,31.05-12.45h0Z"/><path id="base" class="cls-1" d="M538.79,363.53c1.53.09,3.29-.14,3.95-.22,35.61-4.17,48.02-31.29,45.5-64.48-2.54-33.33-22.76-41.95-53.5-42.5l-46.49-1.01c-1.09-1.11,2.11-7.92,3.15-9.35,5.9-8.09,24.84-.31,32.85-5.15v-15c0-4.64,10.41-17.71,1.29-20.29-1.8-.51-10.13-1.05-12.8-1.2-16.68-.96-34.29-.35-51.03-.97-139.59-5.18-279.46-10.13-418.92-15.08-6.7-.24-14.67.79-21.09.09-5.7-.62-2.29-3.83.53-6.57,19.3-18.68,45.12-12.02,69.48-11.44,128.84,3.09,257.23,9.76,386,14,17.52.58,35.03.75,52.55.97.17-8.5-.24-17.05-.06-25.55.05-2.38,2.12-5.46-.6-6.31-3.37-1.04-9.13.54-12.83-.17-7.43-1.43-4.5-16.98-1.02-16.98h16.5v-35.5c-3.49-2.71-7.68-3.12-11.69-5.31-3.55-1.94-5.4-4.94-9.9-6.1-15.25-3.96-41.15-4.04-57.9-6.1C319.79,67.01,186.71,50.6,53.88,33.19c-12.53-1.64-25.41-3.08-37.86-5.14-2.02-.33-5.75-.66-5.77-3.22.6-2.69,16.79-12.1,19.97-13.04,7.57-2.23,14.81-.17,22.52-.46,109.81,13.53,219.39,28.97,329.14,42.86,42.41,5.37,89.72,13.47,131.83,16.17,2.16.14,4.38-.14,6.55-.03.15-4.44-.99-20.42,3.69-21.81,13.01,1.02,30.25-2.1,42.73-.13,1.31.2,2.54.56,3.58,1.42.47.5,1.99,4.54,1.99,5.01v15.5c161.69-16.61,322.94-37.19,484.51-54.99,13.27-1.13,27.82,4.38,35.48,15.47-.86,1.5-2.15,1.21-3.42,1.59-6.35,1.89-18.05,2.8-25.2,3.8-152.56,21.31-311.38,40.57-464.88,53.12-6.67.54-11.61-1.14-18.17,1.83-2.97,1.35-6.16,4.9-9.29,5.71-4.28,1.12-8.93-.89-12.03,1.97v36l1.5,1.5h16c1.11,0,3.2,4.09,3.44,5.56,2.27,14.02-7.86,11.43-17.94,11.44v31c77.42-7.67,155.01-13.83,232.49-21.01,83.92-7.76,167.83-17.62,251.9-22.88,7.86,1.79,16.79,4.88,23.34,9.66,7.38,5.4,5.22,6.21-2.35,7.11-135.78,16.18-274.55,26.4-410.89,39.11-27.85,2.6-58.56,3.21-85.9,7.1-14.43,2.05-2.59,15.26-2.59,20.41v17c5.31,3.64,13.62.61,19.46.46,22.03-.58,56.83-2.34,77.76.32,9.34,1.19,13.85,6.13,13.78,15.72-6.48.25-13.06-.33-19.54-.04-11.42.5-23.4,1.22-33.84,6.16-2.06.97-5.21,3.07-6.61,4.87,1.15-.03,2.3-.04,3.46-.04,4.68.01,9.39.25,14.07.09,45.24-1.52,114.73-1.69,156.72,16.2,26.59,11.32,46.65,45.9,68.82,64.18,28.7,8.52,58.18,15.16,85.59,27.41,21.63,9.66,60.02,28.39,36.3,56.64-14.58,17.37-45.02,24.2-65.82,30.67,1.24,15.58,1.99,30.5-11.14,41.37-14.26,11.81-32.98,6.72-49.58,9.42l-.3,3.95c21.93,5.66,19.08,46.48-3.78,48.05-5.58.39-10.25-3.92-12.69-3.71-3.37.29-5.55,4.14-12.18,3.84-28.83-1.29-27.14-51.88,2.52-50.06v-40c-26.72,3.17-53.64,3.78-80.54,4.96-25.17,1.1-50.74,2.35-75.92,3.08-22.2.65-44.4-.26-66.54,1.96v19c40.45-2.45,37.32,69.31-2.51,65-20.84-2.26-27.31-29.24-21.26-46.27,1.04-2.95,3.39-5.1,3.82-8.18.43-3.13,0-26.43-1.1-27.5l-107.94,3.94,10.01-6.47c16.75-19.05,7.54-50.87-21.03-47.52-.55-6.47.82-14.1-.08-20.41-1.54-10.84-17.55-18.88-27.91-16.58,1.52,3.81,14,14.52,14,17.49v19.5h-63c-.27-.73,1-1.2,1-1.5v-16c0-8.35-13.46-21.57-21.5-22.5-3.64-.42-7.79.28-11.5.01,2.56,6.86,20,20.11,20,26.49v14.5h-38.5c-3.53,0-4.44,6.17-3.01,9.02,1,1.99,5.83,2.75,8.02,2.97,38.79,3.86,82.66-3.74,122.04-1.04,8.96.62,14.82,1.78,16.18,11.81,1.49,10.91-2.57,18.43-13.47,21-55.6,1.4-111.96,2.54-167.5-.02-11.27-5.09-10.91-14.1-11.34-24.86-42.07-9.05-84.56-16.41-126.43-26.37-9.32-2.22-19.01-4.22-28.2-6.8-9.46-2.65-18.49-3.56-19.79-15.21-.72-6.37-.72-21.63,0-28,.59-5.21,3.08-7.95,7.29-10.71l220.02-43.77c6.99-20.42,17.89-28.18,37.69-34.52,49.24-15.75,113.79-34.83,165.22-24.22,18.45,3.8,26.66,17.08,27.77,35.23,1.67,27.49-12.18,50.75-38.98,58.5.1.82,1.23,1.13,2.53,1.2h0ZM840.24,345.31c.46-1.73-.71-1.99-1.48-3-8.1-10.55-27.68-31.4-37.61-40.39-5.34-4.82-8.39-5.62-15.53-6.47-10.28-1.22-25.66-2.12-35.87-2.13-2.82,0-6.27,1.81-9.5,1.01l45.02,53.46c3.78,1.62,22.61-2.19,28.44-2.51,8.78-.48,17.74.44,26.53.03h0ZM769.69,358.74c1.7-1.84,3.78-1.52,2.04-5.39l-46.47-54.03-22.6,59.05c1.58,2.01,44.71,9.86,50.05,10.01,8.32.22,11.64-3.85,16.98-9.64h0ZM686.61,353.24l23.93-58.63c-1.19-2.66-9.39-3.06-12.8-3.28-9.75-.62-30-2.34-38.75-.77-1.37.24-3.2.85-4.27,1.73-3.44,2.82-6.51,24.19-7.3,29.7-.73,5.06-3.72,15.43-.12,18.78,2.37,2.2,37.08,13.19,39.31,12.47h0ZM697.75,425.32c11.97-1.5,9.7-12.82-2.01-13.99-22.07-2.19-53.9-.4-76.7.28-8.82.27-18.6-.14-27.28.72-13.31,1.32-14.31,13.4-3.91,14.89l109.9-1.9h0ZM474.66,372.27c3.11-1.71-.43-3.44-2.36-4.5-15.22-8.34-63.62-6.68-82.26-6.16-23.1.66-47.22,1.99-70.28,3.72-16.89,1.27-41.34,2.41-57.36,5.64-13.16,2.65-17.29,15.26-14.71,27.41,1.16,5.44,6.27,12.48,12.56,9.44,5.72-2.76-.2-17.77,8.49-23.51,5.46-3.6,25.5-2.49,33-3,41.31-2.83,82.64-6.04,123.97-8.03,16.27-.79,32.69-1.13,48.95-1.01h0Z"/><path id="stroke-2" class="cls-2" d="M838.76,342.31c.77,1.01,1.94,1.27,1.48,3-8.79.41-17.75-.51-26.53-.03-5.83.32-24.66,4.13-28.44,2.51l-45.02-53.46c3.23.8,6.68-1.01,9.5-1.01,10.21.01,25.59.91,35.87,2.13,7.14.85,10.19,1.65,15.53,6.47,9.93,8.99,29.51,29.84,37.61,40.39h0ZM818.25,335.31l-27.05-28.44-28.95-2.54,27.95,33.44,28.05-2.46Z"/><polygon id="base-2" class="cls-1" points="791.2 306.87 818.25 335.31 790.2 337.77 762.25 304.33 791.2 306.87"/><path id="stroke-3" class="cls-2" d="M771.73,353.35c1.74,3.87-.34,3.55-2.04,5.39-5.34,5.79-8.66,9.86-16.98,9.64-5.34-.15-48.47-8-50.05-10.01l22.6-59.05,46.47,54.03h0ZM759.17,354.68c.16-.95-10.17-12.91-11.87-14.91-1.28-1.51-3.34-2.19-4.48-3.52-3.69-4.28-7.71-12.14-12.04-15.96-.87-.76-1.12-1.29-2.52-.97l-12.99,31.51c.67,1.13,1.49,1.11,2.53,1.45,6.42,2.05,19.12,3.96,26.12,4.87,5.52.72,12.05,3.33,15.25-2.47h0Z"/><path id="base-3" class="cls-1" d="M747.3,339.77c1.7,2,12.03,13.96,11.87,14.91-3.2,5.8-9.73,3.19-15.25,2.47-7-.91-19.7-2.82-26.12-4.87-1.04-.34-1.86-.32-2.53-1.45l12.99-31.51c1.4-.32,1.65.21,2.52.97,4.33,3.82,8.35,11.68,12.04,15.96,1.14,1.33,3.2,2.01,4.48,3.52h0Z"/><path id="stroke-4" class="cls-2" d="M710.54,294.61l-23.93,58.63c-2.23.72-36.94-10.27-39.31-12.47-3.6-3.35-.61-13.72.12-18.78.79-5.51,3.86-26.88,7.3-29.7,1.07-.88,2.9-1.49,4.27-1.73,8.75-1.57,29,.15,38.75.77,3.41.22,11.61.62,12.8,3.28h0ZM681.14,341.24l16.11-39.91-35.95-.96-4.95,33.86,24.79,7.01h0Z"/><path id="stroke-5" class="cls-2" d="M695.74,411.33c11.71,1.17,13.98,12.49,2.01,13.99l-109.9,1.9c-10.4-1.49-9.4-13.57,3.91-14.89,8.68-.86,18.46-.45,27.28-.72,22.8-.68,54.63-2.47,76.7-.28h0Z"/><polygon id="base-4" class="cls-1" points="697.25 301.33 681.14 341.24 656.35 334.23 661.3 300.37 697.25 301.33"/><path id="stroke-6" class="cls-2" d="M472.3,367.77c1.93,1.06,5.47,2.79,2.36,4.5-16.26-.12-32.68.22-48.95,1.01-41.33,1.99-82.66,5.2-123.97,8.03-7.5.51-27.54-.6-33,3-8.69,5.74-2.77,20.75-8.49,23.51-6.29,3.04-11.4-4-12.56-9.44-2.58-12.15,1.55-24.76,14.71-27.41,16.02-3.23,40.47-4.37,57.36-5.64,23.06-1.73,47.18-3.06,70.28-3.72,18.64-.52,67.04-2.18,82.26,6.16h0Z"/><path id="base-5" class="cls-1" d="M420.31,514.18l9.94-19.86h22l-21.55,37.95c.74,16.61-1.16,39.08-21.39,42.6-49.5,8.61-40.62-91.15,10.45-59.58l.55-1.11Z"/><path id="base-6" class="cls-1" d="M123.23,336.84c2.76,7.04,6.7,13.56,9.02,20.48-10.16,1.46-29.8-1.15-31.05,12.45-1.36,14.79,1.2,31.59.03,46.53-1.39.27-2.68-.13-4.01-.43-8.36-1.9-37.68-10.21-42.99-15.03-4.73-4.31-5.55-9.8-6.02-15.98-1.74-23.04,2.15-52.86-.91-75.09-.56-4-4.63-6.58-4.1-10.9,2.11-24.43-2.66-53.15.05-77.05.69-6.07,4.33-9.78,10.48-10.52,4.04-.49,13.8-.41,17.78.26,8.48,1.43,12.81,10.09,15.76,17.24,14.1,34.14,22.4,73.38,35.96,108.04h0Z"/></svg>